<svg xmlns="http://www.w3.org/2000/svg" width="24" height="24" fill="none" stroke="currentColor" stroke-width="2"><circle cx="12" cy="12" r="3"/><path d="M19.4 15a1.65 1.65 0 0 0 .33 1.82l.06.06-2.12 2.12-.06-.06a1.65 1.65 0 0 0-1.82-.33 1.65 1.65 0 0 0-1 1.51V21h-3v-.08a1.65 1.65 0 0 0-1-1.51 1.65 1.65 0 0 0-1.82.33l-.06.06-2.12-2.12.06-.06a1.65 1.65 0 0 0 .33-1.82 1.65 1.65 0 0 0-1.51-1H3v-3h.08a1.65 1.65 0 0 0 1.51-1 1.65 1.65 0 0 0-.33-1.82l-.06-.06L4.32 4.32l.06.06a1.65 1.65 0 0 0 1.82.33h0A1.65 1.65 0 0 0 7.71 3.2V3h3v.08a1.65 1.65 0 0 0 1 1.51h0a1.65 1.65 0 0 0 1.82-.33l.06-.06 2.12 2.12-.06.06a1.65 1.65 0 0 0-.33 1.82v0A1.65 1.65 0 0 0 20.8 11H21v3h-.08a1.65 1.65 0 0 0-1.51 1z"/></svg>